<svg enable-background="new 0 0 512.001 512.001" viewBox="0 0 512.001 512.001" xmlns="http://www.w3.org/2000/svg"><path d="m234.26 319.428h43.5v183.956h-43.5z" fill="#333e48"/><path d="m234.26 319.428h43.5v37.95h-43.5z" opacity=".2"/><path d="m234.26 413.853h43.5v26.345h-43.5z" opacity=".2"/><path d="m181.258 375.95v37.303c0 4.604 3.768 8.372 8.375 8.372h132.743c4.605 0 8.375-3.768 8.375-8.372v-37.303z" fill="#d1d3d3"/><circle cx="256.004" cy="398.791" fill="#a4a9ad" r="8.891"/><circle cx="214.347" cy="398.791" fill="#a4a9ad" r="8.891"/><circle cx="297.661" cy="398.791" fill="#a4a9ad" r="8.891"/><path d="m181.258 375.947h149.491v22.837h-149.491z" opacity=".2"/><g fill="#333e48"><path d="m141.852 14.743c0-3.37-2.756-6.126-6.127-6.126h-78.492c-3.369 0-6.127 2.757-6.127 6.126v16.345c0 3.37 2.757 6.127 6.127 6.127h78.493c3.37 0 6.127-2.757 6.127-6.127v-16.345z"/><path d="m301.37 14.743c0-3.37-2.756-6.126-6.127-6.126h-78.493c-3.369 0-6.127 2.757-6.127 6.126v16.345c0 3.37 2.757 6.127 6.127 6.127h78.493c3.37 0 6.127-2.757 6.127-6.127z"/><path d="m460.887 14.743c0-3.37-2.756-6.126-6.127-6.126h-78.493c-3.369 0-6.127 2.757-6.127 6.126v16.345c0 3.37 2.757 6.127 6.127 6.127h78.493c3.37 0 6.127-2.757 6.127-6.127z"/></g><path d="m503.675 80.514c0-6.739-5.514-12.254-12.253-12.254h-470.844c-6.739 0-12.253 5.514-12.253 12.254v251.581c0 6.739 5.514 12.253 12.253 12.253h470.844c6.739 0 12.253-5.514 12.253-12.253z" fill="#00b3e3"/><path d="m261.772 344.348h229.651c6.739 0 12.253-5.514 12.253-12.253v-229.65c-133.6 0-241.904 108.303-241.904 241.903z" fill="#0071ce"/><path d="m213.513 156.312h-143.321c-4.599 0-8.325-3.727-8.325-8.325s3.726-8.325 8.325-8.325h143.321c4.599 0 8.325 3.727 8.325 8.325 0 4.597-3.726 8.325-8.325 8.325z" fill="#fff"/><path d="m171.456 193.996h-101.263c-4.599 0-8.325-3.727-8.325-8.325 0-4.597 3.726-8.325 8.325-8.325h101.263c4.599 0 8.325 3.727 8.325 8.325s-3.727 8.325-8.325 8.325z" fill="#fff"/><path d="m491.422 352.672c11.347 0 20.578-9.231 20.578-20.578v-251.58c0-11.347-9.231-20.579-20.578-20.579h-67.578v-14.395h30.916c7.968 0 14.452-6.483 14.452-14.452v-16.345c0-7.968-6.483-14.451-14.452-14.451h-78.493c-7.968 0-14.452 6.482-14.452 14.451v16.345c0 7.968 6.483 14.452 14.452 14.452h30.927v14.395h-142.869v-14.395h30.918c7.968 0 14.452-6.483 14.452-14.452v-16.345c0-7.968-6.483-14.451-14.452-14.451h-78.493c-7.968 0-14.452 6.482-14.452 14.451v16.345c0 7.968 6.483 14.452 14.452 14.452h30.925v14.395h-142.87v-14.395h30.919c7.968 0 14.452-6.483 14.452-14.452v-16.345c0-7.968-6.483-14.451-14.452-14.451h-78.491c-7.968 0-14.452 6.482-14.452 14.451v16.345c0 7.968 6.483 14.452 14.452 14.452h30.923v14.395h-67.578c-11.347.001-20.578 9.232-20.578 20.579v251.581c0 11.347 9.231 20.578 20.578 20.578h205.354v14.952h-217.601c-4.598 0-8.325 3.727-8.325 8.325s3.727 8.325 8.325 8.325h164.602v28.978c0 9.207 7.491 16.697 16.7 16.697h36.298v73.435c0 4.598 3.726 8.325 8.325 8.325h43.495c4.599 0 8.325-3.727 8.325-8.325v-73.435h36.299c9.208 0 16.7-7.49 16.7-16.697v-28.978h164.601c4.599 0 8.325-3.727 8.325-8.325s-3.726-8.325-8.325-8.325h-217.601v-14.952zm-112.956-323.782v-11.949h74.096v11.95h-74.096zm-159.517 0v-11.949h74.096v11.95h-74.096zm-159.518 0v-11.949h74.096v11.95h-74.096zm209.995 466.17h-26.846v-65.11h26.846zm52.989-110.786-.039 29.025-132.793-.047v-28.978zm-79.834-16.649v-14.952h26.846v14.952zm-222.003-31.602c-2.129 0-3.928-1.799-3.928-3.928v-251.581c0-2.13 1.799-3.929 3.928-3.929h470.844c2.129 0 3.928 1.799 3.928 3.929v251.581c0 2.129-1.799 3.928-3.928 3.928z" fill="#1e252b"/></svg>